<?xml version="1.0" encoding="iso-8859-1"?>
<!-- Generator: Adobe Illustrator 18.0.0, SVG Export Plug-In . SVG Version: 6.00 Build 0)  -->
<!DOCTYPE svg PUBLIC "-//W3C//DTD SVG 1.1//EN" "http://www.w3.org/Graphics/SVG/1.1/DTD/svg11.dtd">
<svg version="1.1" id="Capa_1" xmlns="http://www.w3.org/2000/svg" xmlns:xlink="http://www.w3.org/1999/xlink" x="0px" y="0px"
	 viewBox="0 0 398.614 398.614" style="enable-background:new 0 0 398.614 398.614;" xml:space="preserve">
<g>
	<path d="M398.074,265.117c-10.935-61.976-30.089-122.262-56.93-179.184c-6.007-12.74-18.917-20.632-32.951-20.101
		c-26.745,1.01-52.264,6.687-76.248,16.917c-0.081-1.428-0.187-2.854-0.345-4.276c-4.738-42.47-43.146-73.178-85.615-68.43
		C111.741,13.864,84.56,39.641,78.394,72.8l-19.627-5.013c-12.436-3.177-25.151,3.512-29.58,15.557L2.087,157.051
		c-2.431,6.612-1.944,13.981,1.335,20.216c3.279,6.235,9.075,10.811,15.901,12.555l22.074,5.638l-2.069,29.206l-11.625,20.477
		c-0.579,1.02-0.911,2.162-0.968,3.333l-1.525,30.917l-8.795,11.371c-0.898,1.161-1.436,2.56-1.546,4.023l-2.746,36.352
		L1.063,349.637c-1.561,2.611-1.391,5.906,0.431,8.341l20.994,28.068c1.443,1.929,3.687,3.008,6.007,3.008
		c0.774,0,1.557-0.12,2.321-0.369l39.078-12.725c2.443-0.795,4.309-2.786,4.944-5.275l39.966-156.477l20.875,5.332
		c2.029,0.519,4.098,0.773,6.158,0.773c4.871,0,9.692-1.425,13.816-4.165c5.868-3.899,9.828-10.132,10.866-17.1l5.428-36.459
		c5.265-1.2,10.336-2.926,15.15-5.14c11.344,54.499,29.067,107.527,52.827,157.915c5.817,12.337,18.13,20.126,31.625,20.126
		c0.441,0,0.883-0.008,1.326-0.025c39.664-1.498,76.637-13.246,109.892-34.915C394.514,292.896,400.522,278.987,398.074,265.117z
		 M82.267,115.33c0.048,0,0.096,0.008,0.145,0.009c1.892,4.838,4.266,9.482,7.097,13.848c1.436,2.215,3.843,3.421,6.3,3.421
		c1.398,0,2.812-0.391,4.073-1.208c3.476-2.253,4.467-6.897,2.214-10.373c-0.227-0.35-0.444-0.706-0.663-1.061l12.865,3.286
		c4.274,1.092,6.863,5.457,5.771,9.731c-1.092,4.273-5.459,6.862-9.731,5.771l-30.036-7.671c-2.07-0.529-3.811-1.832-4.901-3.67
		c-1.09-1.838-1.399-3.99-0.871-6.061s1.833-3.811,3.67-4.901C79.451,115.71,80.848,115.33,82.267,115.33z M25.906,337.318
		c0.597-0.999,0.954-2.124,1.042-3.284l2.709-35.873l8.86-11.456c0.939-1.214,1.482-2.686,1.558-4.219l1.554-31.49l11.583-20.403
		c0.552-0.973,0.88-2.057,0.959-3.173l1.997-28.188l10.469,2.674l-41.53,162.599l-8.59-11.485L25.906,337.318z M100.271,210.496
		L61.326,362.975l-22.192,7.227L81.17,205.618l12.814,3.273L100.271,210.496z M151.682,196.839c-0.419,2.818-1.957,5.238-4.33,6.815
		c-2.373,1.577-5.201,2.057-7.961,1.352L23.036,175.288c-2.761-0.705-5.011-2.482-6.337-5.004c-1.327-2.522-1.516-5.383-0.533-8.057
		l27.1-73.707c1.765-4.801,6.832-7.468,11.79-6.201l22.035,5.628c0.033,2.575,0.18,5.152,0.465,7.71
		c0.188,1.686,0.451,3.362,0.749,5.032c-2.702,0.476-5.327,1.419-7.758,2.86c-5.284,3.134-9.031,8.138-10.551,14.09
		c-1.521,5.953-0.632,12.141,2.502,17.425c3.134,5.284,8.138,9.031,14.09,10.551l30.036,7.671c1.899,0.485,3.822,0.725,5.732,0.725
		c4.077,0,8.095-1.093,11.693-3.227c5.284-3.134,9.031-8.138,10.552-14.091s0.631-12.141-2.502-17.424
		c-3.134-5.284-8.138-9.032-14.09-10.552l-23.958-6.119c-0.721-2.824-1.263-5.702-1.587-8.605c-0.08-0.722-0.137-1.446-0.193-2.171
		l63.604,16.245c4.956,1.266,8.125,6.035,7.371,11.094L151.682,196.839z M174.362,146.361l3.72-24.988
		c1.89-12.693-6.062-24.661-18.496-27.836L92.959,76.52c4.613-27.198,26.735-48.45,54.69-51.569
		c34.25-3.819,65.223,20.936,69.044,55.185c0.359,3.216,0.455,6.46,0.319,9.671c-6.358,3.311-12.598,6.956-18.711,10.939
		c-11.746,7.654-17.754,21.562-15.307,35.434c0.354,2.005,0.74,4.004,1.111,6.005C180.999,143.846,177.742,145.243,174.362,146.361z
		 M374.578,287.982c-30.948,20.167-65.357,31.099-102.27,32.493c-7.985,0.294-15.378-4.215-18.817-11.509
		c-23.989-50.873-41.682-104.496-52.729-159.612c8.613-6.395,15.911-14.614,21.37-24.304c2.033-3.609,0.756-8.183-2.853-10.216
		c-3.609-2.033-8.182-0.756-10.216,2.853c-3.122,5.541-7,10.473-11.46,14.721c-0.886-7.545,2.514-14.941,8.886-19.094
		c30.948-20.167,65.357-31.099,102.27-32.493c0.252-0.009,0.503-0.014,0.754-0.014c7.7,0,14.733,4.46,18.063,11.523
		c26.273,55.717,45.021,114.728,55.726,175.393C384.704,275.664,381.279,283.616,374.578,287.982z"/>
	<path d="M358.158,236.464c-2.568-8.082-11.233-12.567-19.315-10l-72.858,23.148c-8.082,2.568-12.568,11.233-10,19.315l6.945,21.859
		c2.078,6.539,8.146,10.724,14.668,10.724c1.539,0,3.104-0.233,4.646-0.723l72.858-23.148c0,0,0,0,0,0
		c8.082-2.568,12.568-11.233,10-19.315L358.158,236.464z M277.702,286.491c-0.198,0.064-0.414-0.047-0.478-0.247l-6.945-21.859
		c-0.063-0.199,0.047-0.413,0.247-0.477l29.281-9.303l7.175,22.583L277.702,286.491z M350.559,263.342L350.559,263.342
		l-29.281,9.303l-7.175-22.583l29.281-9.303c0.038-0.012,0.077-0.018,0.115-0.018c0.162,0,0.312,0.104,0.363,0.265l6.945,21.859
		C350.87,263.065,350.759,263.279,350.559,263.342z"/>
	<path d="M235.085,161.528l78.15-24.83c3.948-1.254,6.131-5.471,4.877-9.419c-1.254-3.948-5.476-6.131-9.419-4.877l-78.15,24.83
		c-3.948,1.254-6.131,5.471-4.877,9.419c1.014,3.192,3.966,5.231,7.146,5.231C233.565,161.882,234.331,161.768,235.085,161.528z"/>
	<path d="M325.38,150.153c-1.254-3.948-5.475-6.13-9.419-4.877l-78.15,24.83c-3.948,1.254-6.131,5.471-4.877,9.419
		c1.014,3.192,3.966,5.231,7.146,5.231c0.752,0,1.518-0.114,2.273-0.354l78.15-24.83C324.451,158.317,326.634,154.1,325.38,150.153z
		"/>
</g>
<g>
</g>
<g>
</g>
<g>
</g>
<g>
</g>
<g>
</g>
<g>
</g>
<g>
</g>
<g>
</g>
<g>
</g>
<g>
</g>
<g>
</g>
<g>
</g>
<g>
</g>
<g>
</g>
<g>
</g>
</svg>
